<svg width="21" height="20" viewBox="0 0 21 20" fill="none" xmlns="http://www.w3.org/2000/svg">
<path d="M3.93472 9.48254L3.89378 9.38733H1.05566L1.24969 9.63892L1.24953 9.63908C2.17401 10.8403 3.51918 11.6468 5.01433 11.896L5.39125 11.9594L5.16617 11.6501H5.16632C4.67491 10.9767 4.2616 10.2495 3.93471 9.48255L3.93472 9.48254Z" fill="#272525"/>
<path d="M7.50284 9.38733H4.48828L4.59259 9.60975C4.93798 10.3424 5.36805 11.0321 5.87424 11.6645L5.99627 11.8176L6.11831 11.6645C6.62445 11.0324 7.05455 10.3427 7.39915 9.60975L7.50284 9.38733Z" fill="#272525"/>
<path d="M8.09709 9.38733L8.05615 9.48254C7.72927 10.2496 7.31611 10.9767 6.8247 11.6502L6.59961 11.9595L6.97653 11.8962V11.896C8.47055 11.6444 9.8148 10.8385 10.7407 9.63939L10.9364 9.38748L8.09709 9.38733Z" fill="#272525"/>
<path d="M8.7687 6.4003C8.73278 7.16102 8.59882 7.91392 8.37029 8.64047L8.30566 8.84391H11.2605L11.305 8.76156V8.76141C11.6921 8.03706 11.9197 7.23819 11.9723 6.41848L11.9839 6.25159L8.77589 6.25174L8.7687 6.4003Z" fill="#272525"/>
<path d="M3.77879 6.41671C3.82474 7.20867 3.98128 7.9904 4.24353 8.73924L4.28008 8.84386H7.71248L7.74903 8.73924C8.01285 7.99056 8.16736 7.20803 8.20783 6.41546L8.21583 6.25171H3.76953L3.77879 6.41671Z" fill="#272525"/>
<path d="M3.62142 8.64042C3.39288 7.91387 3.25877 7.16097 3.22254 6.40025L3.21517 6.25171H0L0.012862 6.4197C0.0716802 7.23752 0.298806 8.03451 0.680108 8.76058L0.724029 8.84387H3.68622L3.62142 8.64042Z" fill="#272525"/>
<path d="M3.22256 5.55983C3.25879 4.7991 3.3929 4.04604 3.62144 3.31965L3.68606 3.11621H0.724029L0.680108 3.1995C0.298798 3.92541 0.0715276 4.7224 0.012862 5.54022L0 5.70821L3.21517 5.70837L3.22256 5.55983Z" fill="#272525"/>
<path d="M8.20768 5.54421C8.16721 4.75164 8.01271 3.96907 7.74887 3.22059L7.71232 3.11597H4.27992L4.24338 3.22059C3.98096 3.96927 3.82457 4.751 3.77863 5.54312L3.76953 5.70813H8.21583L8.20768 5.54421Z" fill="#272525"/>
<path d="M8.37124 3.31954C8.59994 4.04594 8.73373 4.79883 8.76965 5.55972L8.77703 5.70826H11.985L11.9734 5.54137H11.9732C11.9208 4.72166 11.6933 3.92278 11.306 3.19844L11.2614 3.11609H8.30664L8.37124 3.31954Z" fill="#272525"/>
<path d="M8.05614 2.47715L8.09707 2.57236H10.9366L10.7408 2.32045H10.7407C9.81492 1.121 8.47071 0.314937 6.97653 0.0634899L6.59961 0.00012207L6.8247 0.309436V0.309279C7.31611 0.982789 7.72941 1.71015 8.05615 2.47714L8.05614 2.47715Z" fill="#272525"/>
<path d="M4.48828 2.57279H7.50284L7.39916 2.35037C7.05455 1.61739 6.62446 0.927694 6.11831 0.295423L5.99628 0.142334L5.87424 0.295423C5.36794 0.927694 4.93784 1.61755 4.59259 2.35037L4.48828 2.57279Z" fill="#272525"/>
<path d="M3.93521 2.47717C4.26209 1.71014 4.67526 0.982824 5.16683 0.309314L5.39191 0L5.015 0.0633678L5.01484 0.0635247C3.51973 0.312607 2.1744 1.11931 1.25004 2.32081L1.05664 2.5724H3.89427L3.93521 2.47717Z" fill="#272525"/>
<path d="M19.7373 17.9877H17.6552L17.6171 18.1372H17.6173C17.5975 18.2131 17.5873 18.291 17.5869 18.3695C17.5869 18.7657 17.7984 19.132 18.1417 19.3303C18.4848 19.5284 18.9077 19.5284 19.251 19.3303C19.5943 19.132 19.8056 18.7657 19.8056 18.3695C19.8054 18.291 19.7952 18.2131 19.7755 18.1372L19.7373 17.9877Z" fill="#272525"/>
<path d="M12.4766 17.9877H10.3945L10.3563 18.1372H10.3565C10.3366 18.2131 10.3264 18.291 10.3262 18.3695C10.3262 18.7657 10.5377 19.132 10.8808 19.3303C11.224 19.5284 11.647 19.5284 11.9903 19.3303C12.3334 19.132 12.5449 18.7657 12.5449 18.3695C12.5447 18.291 12.5345 18.2131 12.5147 18.1372L12.4766 17.9877Z" fill="#272525"/>
<path d="M20.3691 15.0334C19.8842 14.9343 19.4387 14.6963 19.0868 14.3484C18.7369 13.9981 18.4985 13.552 18.4019 13.0663L18.3701 12.9064H16.1396V17.2962H20.5291V15.0651L20.3691 15.0334Z" fill="#272525"/>
<path d="M9.60254 10.7267H15.448V17.2956H9.60254V10.7267Z" fill="#272525"/>
</svg>
