<svg width="14" height="19" viewBox="0 0 14 19" fill="none" xmlns="http://www.w3.org/2000/svg">
<path d="M10.3296 4.79053C9.216 4.9633 8.06407 5.05932 6.912 5.05932C5.75993 5.05932 4.60803 4.96329 3.4944 4.79053C1.40163 6.23053 0 8.93773 0 12.0673C0 16.6945 3.0912 18.2497 6.912 18.2497C10.7328 18.2497 13.824 16.6946 13.824 12.0673C13.824 8.93769 12.4223 6.23053 10.3296 4.79053ZM7.58407 14.6785V15.3889C7.58407 15.5425 7.46889 15.6577 7.31528 15.6577H6.52804C6.37442 15.6577 6.25925 15.5425 6.25925 15.3889V14.6977C5.45285 14.6017 4.80008 13.9489 4.72321 13.1232C4.72321 13.0465 4.74237 12.9696 4.79996 12.912C4.85755 12.8544 4.93442 12.816 5.01116 12.816H5.81756C5.95203 12.816 6.04792 12.912 6.08636 13.0272C6.12479 13.2193 6.29756 13.3727 6.50876 13.3727H7.19996C7.56479 13.3727 7.87202 13.1039 7.91032 12.7776C7.92947 12.5855 7.87188 12.3936 7.73755 12.2591C7.60309 12.1247 7.43032 12.0479 7.23839 12.0479H6.71995C5.64479 12.0479 4.72322 11.2607 4.62719 10.2431C4.53116 9.18705 5.24166 8.26549 6.25925 8.07345V7.38225C6.25925 7.22864 6.37443 7.11346 6.52805 7.11346H7.31528C7.4689 7.11346 7.58408 7.22864 7.58408 7.38225V8.07345C8.40961 8.16948 9.04324 8.82225 9.12011 9.64792C9.12011 9.72466 9.10096 9.80154 9.04337 9.85913C8.98578 9.91672 8.9089 9.95516 8.83216 9.95516H8.02576C7.8913 9.95516 7.77612 9.85913 7.75697 9.74395C7.71853 9.55189 7.54576 9.39842 7.33457 9.39842H6.64337C6.27853 9.39842 5.9713 9.66721 5.933 9.99358C5.91385 10.1856 5.97144 10.3775 6.10577 10.512C6.24024 10.6465 6.413 10.7424 6.60494 10.7424H7.2001C7.75683 10.7424 8.3137 10.992 8.6977 11.3951C9.08167 11.8175 9.27374 12.3743 9.21614 12.9503C9.13926 13.7761 8.4672 14.4865 7.58407 14.6785V14.6785Z" fill="#272525"/>
<path d="M3.99328 3.46579C4.89568 3.60026 5.87485 3.677 6.91172 3.677C7.94845 3.677 8.92775 3.60026 9.83015 3.46579L10.5596 0.893026C10.7133 0.355426 10.2141 -0.124574 9.67638 0.0290602C7.87168 0.604957 5.95158 0.604957 4.14678 0.0482119C3.60918 -0.124557 3.11005 0.374595 3.26351 0.912178L3.99328 3.46579Z" fill="#272525"/>
</svg>
